<?xml version="1.0" encoding="UTF-8"?>
<!-- Generated by Pixelmator Pro 3.6.9 -->
<svg width="462" height="220" viewBox="0 0 462 220" xmlns="http://www.w3.org/2000/svg">
    <g id="Group-copy">
        <path id="Path" fill="#d5d5d5" fill-rule="evenodd" stroke="none" d="M 1.004059 65.861572 L 49.813293 65.861572 L 49.813293 177.728119 L 137.485413 177.728119 L 137.485413 212.713684 L 28.565643 212.713684 C 17.843872 212.713684 1 211.264832 1 184.556244 Z M 198.303345 106.03064 L 249.271667 56.503082 L 249.271667 148.713684 L 292.468994 148.713684 L 292.468994 1.865692 L 276.99646 1.865692 C 266.976624 1.865692 257.042542 0.56781 241.500671 15.256683 C 224.705811 31.116913 224.689453 32.006653 198.303345 56.686768 L 198.319702 56.686768 C 171.925415 32.010742 171.909058 31.116913 155.122345 15.256683 C 139.568237 0.56781 129.630035 1.865692 119.626587 1.865692 L 104.150024 1.865692 L 104.150024 148.713684 L 147.343231 148.713684 L 147.343231 56.503082 Z M 304.411072 141.179504 C 304.411072 99.190247 348.738892 68.514618 403.55188 68.514618 C 425.415833 68.514618 438.496643 71.787872 460.372803 81.01178 L 460.372803 112.691437 C 460.372803 112.691437 434.974426 98.684174 405.057922 98.684174 C 372.121094 98.684174 346.147278 117.797272 346.147278 141.175446 C 346.147278 164.308685 361.309509 189.200989 405.804749 189.200989 C 425.925964 189.200989 453.332458 179.748535 460.368713 174.287659 L 460.368713 205.967346 C 443.271851 213.089294 429.950256 219.374634 401.784607 219.374634 C 373.619019 219.374634 304.411072 209.567078 304.411072 141.179504 Z"/>
    </g>
</svg>
