<?xml version="1.0" encoding="UTF-8"?>
<!-- Generated by Pixelmator Pro Trial 3.6.8 -->
<svg width="1100" height="400" viewBox="0 0 1100 400" xmlns="http://www.w3.org/2000/svg">
    <g id="Group">
        <path id="Path" fill="#8a1919" fill-rule="evenodd" stroke="none" d="M 298.004059 124.861572 L 346.813293 124.861572 L 346.813293 236.728119 L 434.485413 236.728119 L 434.485413 271.713684 L 325.565643 271.713684 C 314.843872 271.713684 298 270.264832 298 243.556244 Z M 540.303345 229.03064 L 591.271667 179.503082 L 591.271667 271.713684 L 634.468994 271.713684 L 634.468994 124.865692 L 618.99646 124.865692 C 608.976624 124.865692 599.042542 123.56781 583.500671 138.256683 C 566.705811 154.116913 566.689453 155.006653 540.303345 179.686768 L 540.319702 179.686768 C 513.925415 155.010727 513.909058 154.116913 497.122345 138.256683 C 481.568237 123.56781 471.630035 124.865692 461.626587 124.865692 L 446.150024 124.865692 L 446.150024 271.713684 L 489.343231 271.713684 L 489.343231 179.503082 Z M 646.411072 198.179504 C 646.411072 156.190247 690.738892 125.514618 745.55188 125.514618 C 767.415833 125.514618 780.496643 128.787872 802.372803 138.01178 L 802.372803 169.691437 C 802.372803 169.691437 776.974426 155.684158 747.057922 155.684158 C 714.121094 155.684158 688.147278 174.797256 688.147278 198.17543 C 688.147278 221.30867 703.309509 246.200989 747.804749 246.200989 C 767.925964 246.200989 795.332458 236.74852 802.368713 231.287643 L 802.368713 262.967346 C 785.271851 270.089294 771.950256 276.374634 743.784607 276.374634 C 715.619019 276.374634 646.411072 266.567078 646.411072 198.179504 Z"/>
    </g>
</svg>
