<?xml version="1.0" encoding="UTF-8"?>
<!-- Generated by Pixelmator Pro 3.6.9 -->
<svg width="1100" height="400" viewBox="0 0 1100 400" xmlns="http://www.w3.org/2000/svg">
    <g id="Group">
        <path id="Path" fill="#090909" fill-rule="evenodd" stroke="none" d="M 343.004059 81.861572 L 391.813293 81.861572 L 391.813293 193.728119 L 479.485413 193.728119 L 479.485413 228.713684 L 370.565643 228.713684 C 359.843872 228.713684 343 227.264832 343 200.556244 Z M 540.303345 122.03064 L 591.271667 72.503082 L 591.271667 164.713684 L 634.468994 164.713684 L 634.468994 17.865692 L 618.99646 17.865692 C 608.976624 17.865692 599.042542 16.56781 583.500671 31.256683 C 566.705811 47.116913 566.689453 48.006653 540.303345 72.686768 L 540.319702 72.686768 C 513.925415 48.010742 513.909058 47.116913 497.122345 31.256683 C 481.568237 16.56781 471.630035 17.865692 461.626587 17.865692 L 446.150024 17.865692 L 446.150024 164.713684 L 489.343231 164.713684 L 489.343231 72.503082 Z M 646.411072 157.179504 C 646.411072 115.190247 690.738892 84.514618 745.55188 84.514618 C 767.415833 84.514618 780.496643 87.787872 802.372803 97.01178 L 802.372803 128.691437 C 802.372803 128.691437 776.974426 114.684174 747.057922 114.684174 C 714.121094 114.684174 688.147278 133.797272 688.147278 157.175446 C 688.147278 180.308685 703.309509 205.200989 747.804749 205.200989 C 767.925964 205.200989 795.332458 195.748535 802.368713 190.287659 L 802.368713 221.967346 C 785.271851 229.089294 771.950256 235.374634 743.784607 235.374634 C 715.619019 235.374634 646.411072 225.567078 646.411072 157.179504 Z"/>
    </g>
</svg>
