<?xml version="1.0" encoding="UTF-8"?>
<!-- Generated by Pixelmator Pro 3.6.9 -->
<svg width="1100" height="400" viewBox="0 0 1100 400" xmlns="http://www.w3.org/2000/svg">
    <g id="Group">
        <path id="Path" fill="#080808" fill-rule="evenodd" stroke="none" d="M 298.004059 17.861572 L 346.813293 17.861572 L 346.813293 129.728119 L 434.485413 129.728119 L 434.485413 164.713684 L 325.565643 164.713684 C 314.843872 164.713684 298 163.264832 298 136.556244 Z M 540.303345 122.03064 L 591.271667 72.503082 L 591.271667 164.713684 L 634.468994 164.713684 L 634.468994 17.865692 L 618.99646 17.865692 C 608.976624 17.865692 599.042542 16.56781 583.500671 31.256683 C 566.705811 47.116913 566.689453 48.006653 540.303345 72.686768 L 540.319702 72.686768 C 513.925415 48.010742 513.909058 47.116913 497.122345 31.256683 C 481.568237 16.56781 471.630035 17.865692 461.626587 17.865692 L 446.150024 17.865692 L 446.150024 164.713684 L 489.343231 164.713684 L 489.343231 72.503082 Z M 646.411072 91.179504 C 646.411072 49.190247 690.738892 18.514618 745.55188 18.514618 C 767.415833 18.514618 780.496643 21.787872 802.372803 31.01178 L 802.372803 62.691437 C 802.372803 62.691437 776.974426 48.684174 747.057922 48.684174 C 714.121094 48.684174 688.147278 67.797272 688.147278 91.175446 C 688.147278 114.308685 703.309509 139.200989 747.804749 139.200989 C 767.925964 139.200989 795.332458 129.748535 802.368713 124.287659 L 802.368713 155.967346 C 785.271851 163.089294 771.950256 169.374634 743.784607 169.374634 C 715.619019 169.374634 646.411072 159.567078 646.411072 91.179504 Z"/>
    </g>
</svg>
