<?xml version="1.0" encoding="UTF-8"?>
<!-- Generated by Pixelmator Pro Trial 3.6.8 -->
<svg width="1700" height="700" viewBox="0 0 1700 700" xmlns="http://www.w3.org/2000/svg">
    <g id="Group">
        <path id="Path" fill="#8a1919" fill-rule="evenodd" stroke="none" d="M 47.92749 109.898071 L 203.032959 109.898071 L 203.032959 465.386353 L 481.636475 465.386353 L 481.636475 576.56311 L 135.51239 576.56311 C 101.440796 576.56311 47.914551 571.958984 47.914551 487.084717 Z M 817.903564 440.925415 L 979.870117 283.537231 L 979.870117 576.56311 L 1117.14209 576.56311 L 1117.14209 109.911133 L 1067.973633 109.911133 C 1036.132813 109.911133 1004.564331 105.786743 955.175537 152.464844 C 901.804932 202.865356 901.753052 205.692749 817.903564 284.120972 L 817.955444 284.120972 C 734.079956 205.705688 734.028076 202.865356 680.683472 152.464844 C 631.255737 105.786743 599.674194 109.911133 567.885376 109.911133 L 518.704102 109.911133 L 518.704102 576.56311 L 655.963013 576.56311 L 655.963013 283.537231 Z M 1155.091553 342.886963 C 1155.091553 209.453979 1295.956055 111.973267 1470.140137 111.973267 C 1539.619141 111.973267 1581.187256 122.375 1650.705078 151.686646 L 1650.705078 252.35791 C 1650.705078 252.35791 1569.994385 207.845703 1474.926025 207.845703 C 1370.259766 207.845703 1287.720337 268.58313 1287.720337 342.874023 C 1287.720337 416.386597 1335.902832 495.489136 1477.299316 495.489136 C 1541.240234 495.489136 1628.332275 465.451172 1650.692139 448.097656 L 1650.692139 548.769043 C 1596.361816 571.401123 1554.028564 591.374634 1464.52417 591.374634 C 1375.019775 591.374634 1155.091553 560.208252 1155.091553 342.886963 Z"/>
    </g>
</svg>
